<?xml version="1.0" encoding="UTF-8" standalone="no"?>
<!DOCTYPE svg PUBLIC "-//W3C//DTD SVG 1.1//EN" "http://www.w3.org/Graphics/SVG/1.1/DTD/svg11.dtd">
<svg width="100%" height="100%" viewBox="0 0 1558 661" version="1.1" xmlns="http://www.w3.org/2000/svg" xmlns:xlink="http://www.w3.org/1999/xlink" xml:space="preserve" xmlns:serif="http://www.serif.com/" style="fill-rule:evenodd;clip-rule:evenodd;stroke-miterlimit:10;">
    <g id="Layer-1" serif:id="Layer 1" transform="matrix(4.16667,0,0,4.16667,-49.9125,-40.0917)">
        <g transform="matrix(-1,0,0,1,397.859,-0.001)">
            <rect x="11.979" y="9.623" width="373.901" height="158.454" style="fill:rgb(35,31,32);"/>
        </g>
        <g transform="matrix(1,0,0,1,353.292,45.2048)">
            <path d="M0,5.868C0,8.423 -2.275,10.219 -5.429,10.219C-7.145,10.219 -8.662,9.78 -9.88,9.101L-10.219,9.92L-10.818,9.92L-12.115,5.629L-11.656,5.489C-10.259,8.143 -7.964,9.361 -5.489,9.361C-3.433,9.361 -1.776,8.163 -1.796,6.487C-1.816,4.591 -3.772,4.052 -6.387,3.373C-8.842,2.735 -11.336,1.996 -11.336,-0.678C-11.336,-2.814 -9.221,-4.351 -6.566,-4.351C-4.73,-4.351 -3.413,-3.872 -2.595,-3.353L-2.315,-4.051L-1.716,-4.051L-0.499,-0.159L-0.938,0C-2.036,-2.235 -3.792,-3.493 -6.447,-3.493C-8.423,-3.493 -9.58,-2.475 -9.58,-1.277C-9.58,0.34 -7.684,0.858 -5.449,1.437C-2.854,2.096 0,2.874 0,5.868" style="fill:white;fill-rule:nonzero;"/>
        </g>
        <g transform="matrix(1,0,0,1,244.903,41.1534)">
            <path d="M0,13.971L0,13.472C1.597,13.372 1.936,13.252 1.936,11.736L1.936,7.125L-4.79,7.125L-4.79,11.736C-4.79,13.252 -4.451,13.372 -2.854,13.472L-2.854,13.971L-8.702,13.971L-8.702,13.472C-7.105,13.372 -6.766,13.252 -6.766,11.736L-6.766,2.235C-6.766,0.699 -7.105,0.599 -8.702,0.499L-8.702,0L-2.854,0L-2.854,0.499C-4.451,0.599 -4.79,0.699 -4.79,2.235L-4.79,6.227L1.936,6.227L1.936,2.235C1.936,0.699 1.597,0.599 0,0.499L0,0L5.848,0L5.848,0.499C4.251,0.599 3.912,0.699 3.912,2.235L3.912,11.736C3.912,13.252 4.251,13.372 5.848,13.472L5.848,13.971L0,13.971Z" style="fill:white;fill-rule:nonzero;"/>
        </g>
        <g transform="matrix(1,0,0,1,256.312,46.3221)">
            <path d="M0,3.633L4.77,3.633L2.355,-2.614L0,3.633ZM8.083,6.846C8.423,7.784 8.822,8.204 9.76,8.303L9.76,8.802L4.571,8.802L4.571,8.303C6.068,8.204 6.407,7.904 6.087,7.066L5.109,4.511L-0.339,4.511L-1.297,7.066C-1.597,7.824 -1.138,8.204 0.399,8.303L0.399,8.802L-4.032,8.802L-4.032,8.303C-3.034,8.204 -2.555,7.784 -2.235,6.946L2.375,-5.169L3.513,-5.169L8.083,6.846Z" style="fill:white;fill-rule:nonzero;"/>
        </g>
        <g transform="matrix(1,0,0,1,273.838,42.0512)">
            <path d="M0,12.175C2.814,12.175 4.331,10.938 5.788,9.141L6.187,9.401L4.231,13.073L-5.808,13.073L-5.808,12.574C-4.211,12.474 -3.872,12.355 -3.872,10.838L-3.872,1.337C-3.872,-0.199 -4.211,-0.299 -5.808,-0.399L-5.808,-0.898L0.04,-0.898L0.04,-0.399C-1.557,-0.299 -1.896,-0.199 -1.896,1.337L-1.896,11.576C-1.896,11.956 -1.676,12.175 -1.297,12.175L0,12.175Z" style="fill:white;fill-rule:nonzero;"/>
        </g>
        <g transform="matrix(1,0,0,1,284.844,48.2181)">
            <path d="M0,-0.159L0,5.409C0,5.789 0.22,6.008 0.599,6.008L2.974,6.008C5.369,6.008 6.467,4.771 6.467,2.935C6.467,1.098 5.249,-0.159 3.213,-0.159L0,-0.159ZM0.599,-6.167C0.22,-6.167 0,-5.947 0,-5.568L0,-1.037L2.814,-1.037C4.83,-1.037 6.067,-1.776 6.067,-3.612C6.067,-5.428 4.95,-6.167 2.694,-6.167L0.599,-6.167ZM-3.912,6.906L-3.912,6.407C-2.315,6.308 -1.976,6.188 -1.976,4.671L-1.976,-4.829C-1.976,-6.366 -2.315,-6.466 -3.912,-6.566L-3.912,-7.065L2.635,-7.065C5.928,-7.065 8.263,-6.206 8.263,-3.612C8.263,-1.975 7.145,-0.977 5.169,-0.598C7.405,-0.159 8.662,1.218 8.662,2.935C8.662,5.529 6.327,6.906 2.974,6.906L-3.912,6.906Z" style="fill:white;fill-rule:nonzero;"/>
        </g>
        <g transform="matrix(1,0,0,1,301.915,41.9713)">
            <path d="M0,12.175C3.014,12.175 4.531,10.938 5.987,9.141L6.407,9.401L4.451,13.073L-6.586,13.073L-6.586,12.574C-4.99,12.474 -4.65,12.355 -4.65,10.838L-4.65,1.338C-4.65,-0.199 -4.99,-0.299 -6.586,-0.399L-6.586,-0.898L4.471,-0.898L5.808,2.356L5.389,2.575C4.131,0.879 2.714,0 0.16,0L-2.076,0C-2.455,0 -2.674,0.22 -2.674,0.599L-2.674,5.329L0.559,5.329C2.036,5.329 2.315,4.671 2.435,3.393L2.954,3.393L2.954,8.163L2.435,8.163C2.315,6.886 2.036,6.227 0.559,6.227L-2.674,6.227L-2.674,11.576C-2.674,11.956 -2.455,12.175 -2.076,12.175L0,12.175Z" style="fill:white;fill-rule:nonzero;"/>
        </g>
        <g transform="matrix(1,0,0,1,314.374,54.2265)">
            <path d="M0,-12.175C-0.379,-12.175 -0.599,-11.955 -0.599,-11.576L-0.599,-6.846L2.395,-6.846C4.63,-6.846 5.868,-7.684 5.868,-9.52C5.868,-11.337 4.63,-12.175 2.415,-12.175L0,-12.175ZM7.225,-0.798C7.704,-0.14 8.223,0.299 9.54,0.399L9.54,0.898L6.127,0.898L1.277,-5.968L-0.599,-5.968L-0.599,-1.337C-0.599,0.179 -0.26,0.299 1.337,0.399L1.337,0.898L-4.511,0.898L-4.511,0.399C-2.914,0.299 -2.575,0.179 -2.575,-1.337L-2.575,-10.838C-2.575,-12.374 -2.814,-12.474 -4.511,-12.574L-4.511,-13.073L2.415,-13.073C5.728,-13.073 8.063,-12.115 8.063,-9.52C8.063,-7.225 6.127,-6.187 3.493,-6.028L7.225,-0.798Z" style="fill:white;fill-rule:nonzero;"/>
        </g>
        <g transform="matrix(1,0,0,1,336.035,42.2908)">
            <path d="M0,11.696C-0.878,12.514 -2.255,13.133 -4.191,13.133C-8.083,13.133 -10.837,10.059 -10.837,5.848C-10.837,1.637 -8.083,-1.437 -4.171,-1.437C-2.655,-1.437 -1.477,-1.018 -0.679,-0.439L-0.399,-1.137L0.199,-1.137L1.417,2.755L0.958,2.914C-0.279,0.659 -1.916,-0.579 -4.032,-0.579C-7.225,-0.579 -8.642,2.116 -8.642,5.848C-8.642,9.58 -7.225,12.255 -4.092,12.255C-2.335,12.255 -1.038,11.397 -0.619,10.838L-0.619,8.682C-0.619,7.165 -0.938,7.046 -2.535,6.946L-2.535,6.447L3.233,6.447L3.233,6.946C1.716,7.046 1.357,7.165 1.357,8.682L1.357,12.834L0.758,12.834L0,11.696Z" style="fill:white;fill-rule:nonzero;"/>
        </g>
        <g transform="matrix(1,0,0,1,242,81.9646)">
            <path d="M0,-2.248L4.793,-2.248C6.983,-2.248 7.397,-3.225 7.575,-5.118L8.344,-5.118L8.344,1.953L7.575,1.953C7.397,0.06 6.983,-0.917 4.793,-0.917L0,-0.917L0,5.918C0,8.167 0.503,8.344 2.87,8.492L2.87,9.232L-5.799,9.232L-5.799,8.492C-3.432,8.344 -2.929,8.167 -2.929,5.918L-2.929,-8.166C-2.929,-10.444 -3.432,-10.592 -5.799,-10.74L-5.799,-11.48L10.593,-11.48L12.575,-6.657L11.954,-6.331C10.09,-8.846 7.989,-10.148 4.202,-10.148L0.888,-10.148C0.325,-10.148 0,-9.823 0,-9.26L0,-2.248Z" style="fill:white;fill-rule:nonzero;"/>
        </g>
        <g transform="matrix(1,0,0,1,255.64,78.1481)">
            <path d="M0,5.385L7.072,5.385L3.491,-3.876L0,5.385ZM11.983,10.149C12.486,11.539 13.078,12.161 14.468,12.309L14.468,13.048L6.776,13.048L6.776,12.309C8.995,12.161 9.498,11.717 9.024,10.474L7.575,6.687L-0.503,6.687L-1.923,10.474C-2.367,11.599 -1.687,12.161 0.592,12.309L0.592,13.048L-5.977,13.048L-5.977,12.309C-4.497,12.161 -3.787,11.539 -3.314,10.297L3.521,-7.663L5.207,-7.663L11.983,10.149Z" style="fill:white;fill-rule:nonzero;"/>
        </g>
        <g transform="matrix(1,0,0,1,287.418,70.4845)">
            <path d="M0,20.712L0,19.972C2.397,19.824 2.87,19.647 2.87,17.398L2.87,2.22L-3.876,20.712L-4.852,20.712L-11.598,2.249L-11.598,17.398C-11.598,19.647 -11.095,19.824 -8.728,19.972L-8.728,20.712L-16.007,20.712L-16.007,19.972C-13.64,19.824 -13.107,19.647 -13.107,17.398L-13.107,3.314C-13.107,1.036 -13.64,0.888 -16.007,0.74L-16.007,0L-9.29,0L-3.61,15.593L2.101,0L8.669,0L8.669,0.74C6.302,0.888 5.799,1.036 5.799,3.314L5.799,17.398C5.799,19.647 6.302,19.824 8.669,19.972L8.669,20.712L0,20.712Z" style="fill:white;fill-rule:nonzero;"/>
        </g>
        <g transform="matrix(1,0,0,1,297.863,70.4845)">
            <path d="M0,20.712L0,19.972C2.367,19.824 2.87,19.647 2.87,17.398L2.87,3.314C2.87,1.036 2.367,0.888 0,0.74L0,0L8.669,0L8.669,0.74C6.302,0.888 5.799,1.036 5.799,3.314L5.799,17.398C5.799,19.647 6.302,19.824 8.669,19.972L8.669,20.712L0,20.712Z" style="fill:white;fill-rule:nonzero;"/>
        </g>
        <g transform="matrix(1,0,0,1,316.118,71.817)">
            <path d="M0,18.048C4.172,18.048 6.421,16.214 8.58,13.551L9.172,13.935L6.273,19.38L-8.61,19.38L-8.61,18.64C-6.243,18.492 -5.74,18.314 -5.74,16.066L-5.74,1.982C-5.74,-0.296 -6.243,-0.444 -8.61,-0.592L-8.61,-1.332L0.059,-1.332L0.059,-0.592C-2.308,-0.444 -2.811,-0.296 -2.811,1.982L-2.811,17.161C-2.811,17.723 -2.486,18.048 -1.923,18.048L0,18.048Z" style="fill:white;fill-rule:nonzero;"/>
        </g>
        <g transform="matrix(1,0,0,1,324.047,70.4845)">
            <path d="M0,20.712L0,19.972C2.367,19.824 2.87,19.647 2.87,17.398L2.87,3.314C2.87,1.036 2.367,0.888 0,0.74L0,0L8.669,0L8.669,0.74C6.302,0.888 5.799,1.036 5.799,3.314L5.799,17.398C5.799,19.647 6.302,19.824 8.669,19.972L8.669,20.712L0,20.712Z" style="fill:white;fill-rule:nonzero;"/>
        </g>
        <g transform="matrix(1,0,0,1,343.664,71.817)">
            <path d="M0,18.048C4.468,18.048 6.716,16.214 8.876,13.551L9.498,13.935L6.598,19.38L-9.764,19.38L-9.764,18.64C-7.397,18.492 -6.894,18.314 -6.894,16.066L-6.894,1.982C-6.894,-0.296 -7.397,-0.444 -9.764,-0.592L-9.764,-1.332L6.628,-1.332L8.61,3.491L7.989,3.816C6.125,1.301 4.024,-0.001 0.237,-0.001L-3.077,-0.001C-3.639,-0.001 -3.965,0.325 -3.965,0.887L-3.965,7.9L0.828,7.9C3.018,7.9 3.432,6.923 3.61,5.029L4.379,5.029L4.379,12.101L3.61,12.101C3.432,10.207 3.018,9.231 0.828,9.231L-3.965,9.231L-3.965,17.161C-3.965,17.723 -3.639,18.048 -3.077,18.048L0,18.048Z" style="fill:white;fill-rule:nonzero;"/>
        </g>
        <g transform="matrix(1,0,0,1,244.202,115.638)">
            <path d="M0,-3.234L6.893,-3.234C10.042,-3.234 10.638,-4.638 10.893,-7.361L11.999,-7.361L11.999,2.808L10.893,2.808C10.638,0.085 10.042,-1.319 6.893,-1.319L0,-1.319L0,8.51C0,11.744 0.723,11.999 4.127,12.212L4.127,13.276L-8.34,13.276L-8.34,12.212C-4.936,11.999 -4.213,11.744 -4.213,8.51L-4.213,-11.744C-4.213,-15.02 -4.936,-15.233 -8.34,-15.446L-8.34,-16.51L15.233,-16.51L18.084,-9.574L17.191,-9.106C14.51,-12.723 11.489,-14.595 6.042,-14.595L1.276,-14.595C0.468,-14.595 0,-14.127 0,-13.319L0,-3.234Z" style="fill:white;fill-rule:nonzero;"/>
        </g>
        <g transform="matrix(1,0,0,1,287.219,114.021)">
            <path d="M0,0C0,-7.957 -2.511,-13.701 -9.489,-13.701C-16.425,-13.701 -18.935,-7.957 -18.935,0C-18.935,7.957 -16.425,13.659 -9.489,13.659C-2.511,13.659 0,7.957 0,0M4.681,0C4.681,8.978 -0.723,15.531 -9.489,15.531C-18.212,15.531 -23.616,8.978 -23.616,0C-23.616,-8.978 -18.212,-15.531 -9.489,-15.531C-0.723,-15.531 4.681,-8.978 4.681,0" style="fill:white;fill-rule:nonzero;"/>
        </g>
        <g transform="matrix(1,0,0,1,291.693,99.1274)">
            <path d="M0,29.786L0,28.722C3.404,28.509 4.17,28.254 4.17,25.02L4.17,4.766C4.17,1.49 3.404,1.277 0,1.064L0,0L9.276,0L23.828,22.255L23.828,4.766C23.828,1.49 23.233,1.277 19.786,1.064L19.786,0L30.083,0L30.083,1.064C26.679,1.277 25.999,1.49 25.999,4.766L25.999,29.786L23.701,29.786L6.34,3.234L6.34,25.02C6.34,28.254 7.106,28.509 10.51,28.722L10.51,29.786L0,29.786Z" style="fill:white;fill-rule:nonzero;"/>
        </g>
        <g transform="matrix(1,0,0,1,333.51,126.999)">
            <path d="M0,-25.956C-0.809,-25.956 -1.277,-25.488 -1.277,-24.679L-1.277,-1.276C-1.277,-0.468 -0.809,-0 0,-0L3.787,-0C10.127,-0 15.063,-2.425 15.063,-12.978C15.063,-23.531 10.127,-25.956 3.787,-25.956L0,-25.956ZM-9.617,1.915L-9.617,0.851C-6.212,0.638 -5.489,0.383 -5.489,-2.851L-5.489,-23.105C-5.489,-26.381 -6.212,-26.594 -9.617,-26.807L-9.617,-27.871L3.787,-27.871C13.531,-27.871 19.744,-22.977 19.744,-12.978C19.744,-2.979 13.531,1.915 3.787,1.915L-9.617,1.915Z" style="fill:white;fill-rule:nonzero;"/>
        </g>
        <g transform="matrix(1,0,0,1,236.201,62.9711)">
            <path d="M0,0L117.075,0" style="fill:none;fill-rule:nonzero;stroke:rgb(240,176,38);stroke-width:1.2px;"/>
        </g>
        <g transform="matrix(1,0,0,1,236.201,136.845)">
            <path d="M0,0L117.075,0" style="fill:none;fill-rule:nonzero;stroke:rgb(240,176,38);stroke-width:1.2px;"/>
        </g>
        <g transform="matrix(1,0,0,1,222.116,132.71)">
            <path d="M0,-87.721L0,-91.856L-41.054,-91.856L-41.054,-87.721C-27.615,-86.539 -26.139,-85.949 -26.139,-73.101L-26.139,-46.816L-42.023,-46.816C-55.535,-46.816 -57.963,-46.841 -57.963,-55.651L-57.963,-56.859L-62.336,-56.859L-62.336,-55.651C-62.336,-46.85 -64.763,-46.816 -77.993,-46.816L-93.06,-46.816L-93.082,-81.233C-93.082,-85.976 -93.082,-85.976 -89.242,-85.947L-73.35,-85.947C-65.08,-85.947 -62.865,-84.766 -60.059,-79.745C-57.992,-76.496 -56.811,-72.952 -55.481,-68.817L-50.903,-69.407C-51.387,-76.718 -52.154,-86.477 -52.372,-91.856L-120.016,-91.856L-120.016,-87.72C-108.202,-86.538 -106.725,-85.947 -106.725,-73.1L-106.725,-46.816L-151.41,-46.816L-151.41,-73.395C-151.41,-85.652 -149.933,-86.686 -138.119,-87.72L-138.119,-91.856L-177.549,-91.856L-177.549,-87.72C-165.587,-86.538 -164.258,-85.8 -164.258,-73.395L-164.258,-14.177C-164.258,-1.772 -165.587,-1.329 -177.549,0L-177.549,4.135L-138.119,4.135L-138.119,0C-150.228,-1.477 -151.41,-1.92 -151.41,-14.177L-151.41,-40.613L-106.725,-40.613L-106.725,-14.62C-106.725,-5.285 -107.449,-2.256 -112.579,-0.952C-113.931,-0.675 -115.553,-0.45 -117.485,-0.209C-118.273,-0.136 -119.11,-0.067 -120.016,0L-120.016,4.135L-78.962,4.135L-78.962,0C-80.373,-0.124 -81.644,-0.242 -82.804,-0.368C-91.971,-1.523 -93.06,-2.957 -93.06,-14.177L-93.06,-40.613L-77.993,-40.613C-64.763,-40.613 -62.336,-40.627 -62.336,-32.392L-62.336,-30.573L-57.963,-30.573L-57.963,-32.392C-57.963,-40.087 -55.838,-40.591 -44.537,-40.613L-26.139,-40.613L-26.139,-6.499C-26.139,-1.774 -26.131,-1.774 -30.864,-1.774L-46.665,-1.774C-54.935,-1.774 -57.151,-2.955 -59.956,-7.976C-62.024,-11.225 -63.205,-14.769 -64.534,-18.904L-69.112,-18.314C-68.617,-10.776 -67.961,-1.165 -67.644,4.135C-64.455,4.069 0,4.135 0,4.135L0,-0.001C-11.814,-1.183 -13.291,-1.774 -13.291,-14.621L-13.291,-73.101C-13.291,-85.801 -11.962,-86.835 0,-87.721" style="fill:rgb(240,176,38);fill-rule:nonzero;"/>
        </g>
    </g>
</svg>
